<mxfile host="app.diagrams.net" modified="2023-09-26T06:01:22.400Z" agent="Mozilla/5.0 (X11; Ubuntu; Linux x86_64; rv:109.0) Gecko/20100101 Firefox/117.0" version="21.8.2" etag="KPuor-i6wgMbO8D4a334" type="github">
  <diagram name="Page-1" id="na4dSkBtmyx6AHlAOyE4">
    <mxGraphModel>
      <root>
        <mxCell id="0" />
        <mxCell id="1" parent="0" />
      </root>
    </mxGraphModel>
  </diagram>
</mxfile>
